<?xml version="1.0" encoding="UTF-8"?>
<!DOCTYPE svg  PUBLIC '-//W3C//DTD SVG 1.1//EN'  'http://www.w3.org/Graphics/SVG/1.1/DTD/svg11.dtd'>
<svg enable-background="new 0 0 560 560" version="1.1" viewBox="0 0 560 560" xml:space="preserve" xmlns="http://www.w3.org/2000/svg">
		<path d="m444.65 57.862s-1.072-0.933-1.271-0.933c-13.944 50.154-65.109 122.38-97.941 158.76-86.985 96.374-166.6 121.54-223.97 126.19 25.324 38.636 94.361 55.142 150.15 48.179 43.296-5.435 77.256-25.041 102.12-51.527 14.392-15.301 32.476-41.88 46.054-71.948 14.214-31.293 23.773-66.326 27.621-96.128 8.474-66.224-2.762-112.6-2.762-112.6z" fill="#9ECD52"/>
			<path d="m225.36 259.14c120.57-56.674 193.94-168.7 213.77-202.06-28.25 1.14-181.53 10.313-253.23 74.764-71.447 64.165-73.891 148.23-73.935 158.39 24.612-1.673 65.07-8.32 113.4-31.09z" fill="#A7A9AC"/>
			<path d="m225.36 259.14c120.57-56.674 193.94-168.7 213.77-202.06-28.25 1.14-181.53 10.313-253.23 74.764-71.447 64.165-73.891 148.23-73.935 158.39 24.612-1.673 65.07-8.32 113.4-31.09z" fill="#789B3E"/>
	<g transform="translate(299.68 45.448)">
		<path d="m167.26 389.75h-11.964l-15.268 14.072-15.154-14.069h-12.136l21.309 19.712-22.106 20.279h11.965l16.007-14.755 15.954 14.755h12.193l-22.164-20.338 21.364-19.656zm-104.99 0v39.994h44.324v-6.723h-35.266v-10.997h21.138v-6.21h-21.138v-9.172h35.266v-6.893h-44.324zm-52.516 9.744l30.023 30.25h10.257v-39.994h-8.946v28.829l-28.826-28.826h-11.51v39.993h9.002v-30.252zm-30.299 30.25h9.059v-39.994h-9.059v39.994zm-50.919-39.994v39.994h9.056v-15.609h21.252v-6.553h-21.252v-10.939h34.525v-6.893h-43.581zm-27.681 7.576h19.941v-7.576h-48.938v7.576h19.939v32.418h9.057v-32.418zm-45.79 32.418h9.059v-39.994h-9.059v39.994zm-23.92-20.963c8.832-0.286 12.024-4.675 12.024-9.457 0-5.243-4.161-9.571-14.299-9.571h-32.419v39.993h33.385c8.32 0 14.529-3.475 14.529-10.937-1e-3 -5.302-3.478-9.801-13.22-10.028m-5.354-2.849h-20.279v-9.4h20.279c5.528 0 7.691 1.938 7.691 4.615 0 2.448-2.506 4.785-7.691 4.785m0.684 17.146h-20.963v-11.164h20.963c5.244 0 7.919 2.506 7.919 5.752 0 3.134-2.62 5.412-7.919 5.412" fill="#111"/>
	</g>
</svg>
