<svg width="43" height="66" viewBox="0 0 43 66" fill="none" xmlns="http://www.w3.org/2000/svg">
<g filter="url(#filter0_d)">
<path d="M11.8366 37.9103C11.0776 35.151 9.47921 33.1484 8.0242 31.3352L7.99917 31.304C6.23666 29.1076 4.696 27.1877 4.22441 24.2952L4.2131 24.2258C3.84676 22.8555 3.65202 21.4198 3.65202 19.9406C3.65202 17.9946 3.98912 16.1236 4.61065 14.378C5.06317 12.9306 5.59385 11.737 6.28075 10.6647C7.18172 9.25828 8.39453 7.99384 10.1803 6.63064C12.1881 5.09803 13.9947 4.10469 15.8942 3.50823C16.7049 3.25367 17.5477 3.06663 18.4483 2.94398C19.5264 2.7532 20.6381 2.65348 21.7742 2.65348C25.9324 2.65348 29.7635 3.98943 32.8216 6.23593C33.008 6.36731 33.1956 6.50303 33.3847 6.64318C35.1851 7.97722 36.38 9.28318 37.2662 10.7488C37.6533 11.3889 37.9883 12.0705 38.29 12.8147C39.1022 14.525 39.6311 16.3838 39.8194 18.3368C40.1087 20.2712 39.9597 21.8837 39.351 24.169C39.3376 24.2196 39.3238 24.27 39.3097 24.3202C38.6141 26.8616 37.3274 29.1752 35.5981 31.1193C35.5097 31.2428 35.4209 31.3667 35.3316 31.4912L35.3309 31.4922C35.2002 31.6744 35.0688 31.8578 34.9368 32.0426C33.6565 33.8354 32.3374 35.7592 31.5129 38.0151C31.4889 38.0276 31.4649 38.04 31.4409 38.0524C31.127 38.9513 30.8927 39.903 30.7708 40.9197C30.6298 42.0968 30.6266 43.078 30.6238 43.9637L30.6235 44.0415C30.6204 44.9529 30.6133 45.7609 30.4799 46.7C30.3747 47.4404 30.1462 47.844 29.8435 48.146C29.5001 48.4886 28.9486 48.8142 27.9712 49.2074C26.3835 49.8461 24.6643 50.2313 21.8034 50.3203C18.9751 49.9611 15.7744 49.8466 12.5119 50.068C11.538 50.1341 10.8056 50.9287 10.876 51.8429C10.9464 52.757 11.793 53.4445 12.7669 53.3785C18.6965 52.9761 24.171 53.7858 27.1133 54.9458C27.8395 55.2322 28.3283 55.508 28.6172 55.7344L28.6319 55.746C28.3947 55.9174 27.9792 56.1493 27.298 56.4085C26.4546 56.7295 25.8094 56.9884 25.2848 57.1989C23.9705 57.7263 23.4132 57.95 22.395 58.0836C22.2299 58.1052 22.0553 58.1239 21.8675 58.1397C20.9609 58.069 20.0014 58.0907 18.8961 58.1157L18.6111 58.1221C17.6995 58.1421 16.6214 58.1629 15.2786 58.1507C14.5316 58.1345 13.7084 58.1156 12.7983 58.0948C12.7205 58.092 12.642 58.0892 12.5628 58.0862C12.5151 58.0844 12.4678 58.0844 12.4209 58.0861L12.3879 58.0854C11.4117 58.063 10.6011 58.7877 10.5773 59.704C10.5535 60.6203 11.3255 61.3812 12.3017 61.4035L12.6923 61.4125C13.6023 61.4444 14.4214 61.4615 15.1628 61.4689C18.3494 61.5392 20.354 61.5652 21.8266 61.4708C21.8466 61.473 21.8665 61.4753 21.8864 61.4776C23.3672 61.6514 24.6941 62.2325 29.2737 64.7694C30.1146 65.2352 31.1986 64.973 31.6949 64.1836C32.1912 63.3943 31.9118 62.3768 31.0709 61.9109C29.6317 61.1137 28.4505 60.4692 27.4305 59.953C27.7985 59.8056 28.1937 59.6492 28.6265 59.4845C29.6984 59.0766 30.6209 58.5885 31.2796 57.975C31.9689 57.333 32.4718 56.4403 32.314 55.3812C32.169 54.408 31.5164 53.6824 30.883 53.1862C30.2628 52.7003 29.4813 52.2905 28.6277 51.9437C28.7968 51.8816 28.9647 51.817 29.132 51.7497C30.2173 51.3131 31.223 50.8063 31.9897 50.0412C32.7971 49.2356 33.2316 48.2561 33.4007 47.0656C33.562 45.9302 33.5671 44.961 33.5702 44.0503L33.5703 44.0062C33.5733 43.1065 33.5762 42.2546 33.6991 41.2289C34.0109 38.6266 35.2351 36.5039 36.779 34.2773C36.9296 34.1235 37.0777 33.9673 37.2234 33.8089C37.2768 33.7336 37.3305 33.6583 37.3844 33.5827C37.525 33.3859 37.6676 33.1875 37.8116 32.9872L37.8158 32.9813L37.8177 32.9787C38.8482 31.5454 39.9475 30.0163 40.8411 28.3013C41.9395 25.8237 42.5484 23.09 42.5484 20.2172C42.5484 11.0604 36.3622 3.31758 27.8565 0.772759C26.2453 0.343666 24.5203 0.105743 22.5742 0.0270964C21.0464 -0.0346493 19.6307 0.00716357 18.2864 0.172811C8.4737 1.79615 1 10.1526 1 20.2172C1 24.4201 2.30327 28.3251 4.53589 31.5663C4.86938 32.0019 5.20561 32.4205 5.53331 32.8284L5.6705 32.9993C5.86586 33.2427 6.0578 33.4829 6.24516 33.7215C6.45294 33.9501 6.66591 34.1741 6.88389 34.3934C8.07698 36.0107 8.99311 37.648 9.26023 39.8479C9.38945 40.9121 9.46197 42.4174 9.50133 43.6884C9.5208 44.3171 9.53184 44.8768 9.53801 45.2791C9.54109 45.4802 9.54296 45.6417 9.54404 45.7525C9.54459 45.8079 9.54494 45.8506 9.54515 45.8792L9.54543 45.9212C9.54948 46.685 10.2124 47.3015 11.0261 47.2977C11.8398 47.2939 12.4961 46.6716 12.4921 45.9078L11.0188 45.9147C12.4921 45.9078 12.4921 45.9079 12.4921 45.9078L12.4918 45.8599C12.4915 45.8293 12.4912 45.7845 12.4906 45.727C12.4895 45.6119 12.4876 45.4456 12.4844 45.2393C12.4781 44.827 12.4668 44.2534 12.4468 43.608C12.4072 42.3306 12.3324 40.7243 12.188 39.5347C12.12 38.9748 12.0179 38.4434 11.8875 37.9374C11.8705 37.9284 11.8535 37.9193 11.8366 37.9103Z" fill="black"/>
</g>
<defs>
<filter id="filter0_d" x="0.75" y="0" width="42.0484" height="65.5" filterUnits="userSpaceOnUse" color-interpolation-filters="sRGB">
<feFlood flood-opacity="0" result="BackgroundImageFix"/>
<feColorMatrix in="SourceAlpha" type="matrix" values="0 0 0 0 0 0 0 0 0 0 0 0 0 0 0 0 0 0 127 0"/>
<feOffset dy="0.25"/>
<feGaussianBlur stdDeviation="0.125"/>
<feColorMatrix type="matrix" values="0 0 0 0 1 0 0 0 0 1 0 0 0 0 1 0 0 0 1 0"/>
<feBlend mode="lighten" in2="BackgroundImageFix" result="effect1_dropShadow"/>
<feBlend mode="normal" in="SourceGraphic" in2="effect1_dropShadow" result="shape"/>
</filter>
</defs>
</svg>
